<?xml version="1.0" encoding="utf-8"?>
<!-- Generator: Adobe Illustrator 23.0.1, SVG Export Plug-In . SVG Version: 6.00 Build 0)  -->
<svg version="1.1" id="Layer_1" xmlns="http://www.w3.org/2000/svg" xmlns:xlink="http://www.w3.org/1999/xlink" x="0px" y="0px"
	 viewBox="0 0 198.42 17.01" style="enable-background:new 0 0 198.42 17.01;" xml:space="preserve">
<style type="text/css">
	.st0{clip-path:url(#SVGID_2_);fill:#3C4C75;}
</style>
<g>
	<defs>
		<rect id="SVGID_1_" y="0" width="198.42" height="17.01"/>
	</defs>
	<clipPath id="SVGID_2_">
		<use xlink:href="#SVGID_1_"  style="overflow:visible;"/>
	</clipPath>
	<path class="st0" d="M110.03,9.25l0,2.68c0,3.04-2.18,5.08-5.33,5.08c-3.1,0-5.38-2.28-5.38-5.08c0-3.35,2.7-4.42,2.79-4.46
		c-0.13-0.06-1.82-1.06-1.82-3.32c0-2.59,2.2-4.15,4.42-4.15c2.43,0,4.35,1.55,4.35,4.15h-1.84c0-1.3-1.14-2.36-2.51-2.36
		c-1.36,0-2.51,1.07-2.51,2.36c0,1.6,1.44,2.55,2.48,2.55h0.47v1.78h-0.47c-2.08,0-3.43,1.66-3.43,3.45c0,1.8,1.57,3.24,3.46,3.24
		c1.22,0,3.47-0.47,3.47-3.43V7.47h3.64v1.78H110.03z M69.11,16.39h2.03V0.53h-2.03V16.39z M61.22,11.81L49.94,0.35v16.04h2.03V5.11
		l11.28,11.46V0.53h-2.03V11.81z M11.75,0.53h-2.5L2.03,8.27V0.53H0v15.86h2.03V8.65l7.62,7.74h2.7L4.44,8.46L11.75,0.53z
		 M30.65,8.46c0,4.6-3.57,8.11-8.09,8.11c-4.52,0-8.09-3.51-8.09-8.11c0-4.6,3.57-8.11,8.09-8.11C27.09,0.35,30.65,3.85,30.65,8.46
		 M28.58,8.46c0-3.48-2.56-6.16-6.02-6.16c-3.46,0-6.02,2.68-6.02,6.16c0,3.48,2.56,6.16,6.02,6.16
		C26.02,14.62,28.58,11.94,28.58,8.46 M34.95,16.39h9.14v-1.97h-7.11V9.44h5.43V7.47h-5.43V2.49h7.11V0.53h-9.14V16.39z
		 M164.2,10.44c0,2.75-1.74,4.18-4.28,4.18c-2.54,0-4.28-1.43-4.28-4.18V0.53h-2.03v9.83c0,3.89,2.63,6.21,6.31,6.21
		c3.7,0,6.31-2.32,6.31-6.21V0.53h-2.03V10.44z M83.84,9.44h3.59v4.31c-0.98,0.58-2.32,0.87-3.59,0.87c-3.45,0-6.02-2.68-6.02-6.16
		c0-3.48,2.56-6.16,6.02-6.16c1.6,0,3.08,0.56,4.12,1.47l1.38-1.41c-1.43-1.32-3.36-2.01-5.5-2.01c-4.53,0-8.09,3.51-8.09,8.11
		c0,4.6,3.57,8.11,8.09,8.11c2.07,0,4.15-0.67,5.62-1.79v-7.3h-5.62V9.44z M171.88,16.39h9.14v-1.97h-7.11V9.44h5.43V7.47h-5.43
		V2.49h7.11V0.53h-9.14V16.39z M142.97,0.35l7.71,16.04h-2.18l-1.96-4.16h-7.13l-1.96,4.16h-2.18L142.97,0.35z M145.68,10.35
		L143,4.68l-2.68,5.67H145.68z M132.6,11.92c0,2.88-2.21,4.47-5.46,4.47h-5.53V0.53h5.09c3.05,0,4.85,1.97,4.85,4.2
		c0,1.61-0.62,2.64-1.65,3.33C131.51,8.56,132.6,9.77,132.6,11.92 M123.63,7.47h3.21c1.67,0,2.67-1.18,2.67-2.59
		c0-1.34-1-2.39-2.67-2.39h-3.21V7.47z M130.54,11.83c0-1.47-1.03-2.39-3.16-2.39h-3.74v4.98h3.74
		C129.52,14.42,130.54,13.37,130.54,11.83 M190.78,9.28h-1.87v7.1h-2.03V0.53h5.09c3.05,0,4.85,1.97,4.85,4.2
		c0,2.03-0.84,4.04-3.73,4.46l5.32,7.2h-2.45L190.78,9.28z M188.91,7.47h3.21c1.67,0,2.67-1.18,2.67-2.59c0-1.34-1-2.39-2.67-2.39
		h-3.21V7.47z"/>
</g>
</svg>
